<?xml version="1.0" encoding="utf-8"?>
<!-- Generator: Adobe Illustrator 19.0.0, SVG Export Plug-In . SVG Version: 6.00 Build 0)  -->
<svg version="1.1" id="Ebene_1" xmlns="http://www.w3.org/2000/svg" xmlns:xlink="http://www.w3.org/1999/xlink" x="0px" y="0px"
	 viewBox="0 0 512 512" style="enable-background:new 0 0 512 512;" xml:space="preserve">
<style type="text/css">
	.st0{fill:#3E4E9D;}
	.st1{fill:#3AB07E;}
</style>
<circle id="XMLID_1_" class="st0" cx="256" cy="256" r="256"/>
<g id="XMLID_255_">
	
		<image style="overflow:visible;opacity:0.75;enable-background:new    ;" width="2542" height="2800" id="XMLID_112_" xlink:href="94788BA6.png"  transform="matrix(0.2398 0 0 0.2393 -41.681 -87.0084)">
	</image>
	<g id="XMLID_70_">
		<g id="XMLID_98_">
			<path id="XMLID_99_" class="st1" d="M408.9,235.9c-2.3-18.3-7.1-35.7-16.7-51.4c-15.9-26.2-39.3-40.3-70.3-40.5
				c-14.1-0.1-27.6,3.1-40.8,8.1c-6.4,2.5-12.6,5.2-18.6,8.4c-0.3-0.6-0.5-0.8-0.5-0.9c1.3-14.2,4.3-28,12.1-40.3
				c2.1-3.3,5-5.8,8.9-7.2c7.4-2.5,9.3-5.3,9.7-13.2c-1.6-4.6-5.1-6.6-9.9-6.7c-12.1,2-20.9,8.5-26.6,20.5
				c-1.6-7.7-3.5-14.2-6.7-20.3c-5.8-11-14.3-19.3-25.2-25.2c-0.8-0.4-1.6-1-2.4-1.5h-0.1c-0.6,0.1-1.1-0.1-1.4-0.7
				c-0.2-0.1-0.5-0.1-0.7-0.2c-0.3-0.2-0.5-0.3-0.8-0.5c-13.8-5.6-28.3-7.7-43-8.3c-3.5-0.1-4.5,1.5-4.2,4.3
				c0.4,4.4,0.9,8.9,1.9,13.3c2,8.9,7,16.4,11.4,24.2c6.8,9,14.2,17.3,22.8,24.6c2.1,1.8,4.4,3.5,6.5,5.2
				c9.2,7.4,19.3,13.4,29.6,18.9c2.7,1.4,3.7,2.8,3.1,6c-0.9,5.4-0.7,5.4-5.7,3.1c-16.5-7.7-33.7-12.8-52.2-12.7
				c-8.7,0-17.1,1.8-25.4,4c-0.6,0.3-1.3,0.6-1.9,0.9c-14.6,5.8-26.6,14.8-36.1,27.4c-7.1,9.4-12.1,19.9-16,30.9
				c-0.1,0.2-0.3,0.5-0.4,0.7c-0.7,2.1-1.3,4.3-2,6.4c-0.1,0.2-0.1,0.4-0.2,0.6l0,0c-0.3,1-0.6,2.1-0.6,2.1
				c-0.1,0.5-0.2,0.9-0.3,1.4c-5.5,24.9-6.6,50.1-3.5,75.4c2.9,24.1,9,47.3,19.3,69.3c11.4,24.4,27.8,43.9,53,55
				c7.1,3.1,14.2,6.1,22,7.1c8.9,1.2,17.7,1.9,26.6,0.2c9.9-1.9,19.2-5.2,27.7-10.4c2.4-1.5,4-1.3,6.3,0.1
				c11.2,7.1,23.5,11.4,36.7,11.9c28.7,1.2,52.5-10.3,72.2-30.4c14.1-14.4,23-32.3,29.7-51.1C409,309.2,413.6,273.1,408.9,235.9z
				 M195,215.5l-19.6,45.9c-3.8,9-14.3,13.2-23.3,9.4c-9-3.8-13.2-14.3-9.4-23.3l19.6-45.9c3.8-9,14.3-13.2,23.3-9.4
				C194.6,196,198.8,206.5,195,215.5z"/>
		</g>
	</g>
</g>
</svg>
